<?xml version="1.0" standalone="no"?><!-- Generator: Gravit.io --><svg xmlns="http://www.w3.org/2000/svg" xmlns:xlink="http://www.w3.org/1999/xlink" style="isolation:isolate" viewBox="0 0 300 300" width="300" height="300"><defs><clipPath id="_clipPath_dpGCoBvfHCtT4PGqSIRpndlaK2zAT7Yh"><rect width="300" height="300"/></clipPath></defs><g clip-path="url(#_clipPath_dpGCoBvfHCtT4PGqSIRpndlaK2zAT7Yh)"><clipPath id="_clipPath_BWXg8UMxeyfgF5UOLS8gZpNub5sNEaiZ"><rect x="0" y="0" width="300" height="300" transform="matrix(1,0,0,1,0,0)" fill="rgb(255,255,255)"/></clipPath><g clip-path="url(#_clipPath_BWXg8UMxeyfgF5UOLS8gZpNub5sNEaiZ)"><g><g><path d=" M 0 0 L 300 0 L 300 300 L 0 300 L 0 0 L 0 0 Z " fill="none"/><g><path d=" M 103.178 106.939 C 109.548 106.939 115.291 110.776 117.729 116.662 C 120.167 122.547 118.819 129.321 114.315 133.826 C 109.81 138.33 103.036 139.678 97.15 137.24 C 91.265 134.802 87.428 129.059 87.428 122.689 C 87.428 113.991 94.48 106.939 103.178 106.939 Z " fill-rule="evenodd" fill="rgb(0,0,0)"/><path d=" M 173.412 106.939 C 179.782 106.937 185.526 110.772 187.966 116.658 C 190.405 122.543 189.06 129.318 184.556 133.824 C 180.052 138.329 173.276 139.678 167.39 137.241 C 161.505 134.803 157.667 129.06 157.667 122.689 C 157.667 113.993 164.714 106.942 173.412 106.939 L 173.412 106.939 Z " fill-rule="evenodd" fill="rgb(0,0,0)"/><path d=" M 138.295 106.939 C 146.993 106.939 154.045 113.991 154.045 122.689 C 154.045 131.387 146.993 138.439 138.295 138.439 C 129.596 138.439 122.545 131.387 122.545 122.689 C 122.543 118.511 124.202 114.504 127.155 111.551 C 130.11 108.597 134.117 106.937 138.295 106.939 L 138.295 106.939 Z " fill-rule="evenodd" fill="rgb(0,0,0)"/><path d=" M 231.694 106.939 C 238.065 106.937 243.81 110.772 246.25 116.658 C 248.689 122.543 247.342 129.318 242.838 133.824 C 238.335 138.329 231.56 139.678 225.674 137.241 C 219.788 134.803 215.95 129.06 215.95 122.689 C 215.95 113.993 222.998 106.942 231.694 106.939 L 231.694 106.939 Z " fill-rule="evenodd" fill="rgb(0,0,0)"/><path d=" M 68.333 106.939 C 74.704 106.937 80.449 110.772 82.888 116.658 C 85.328 122.543 83.982 129.318 79.478 133.824 C 74.974 138.329 68.199 139.678 62.313 137.241 C 56.427 134.803 52.588 129.06 52.588 122.689 C 52.588 113.993 59.637 106.942 68.333 106.939 L 68.333 106.939 Z " fill-rule="evenodd" fill="rgb(0,0,0)"/><path d=" M 103.178 161.55 C 111.876 161.55 118.928 168.602 118.928 177.3 C 118.928 185.999 111.876 193.05 103.178 193.05 C 94.48 193.05 87.428 185.999 87.428 177.3 C 87.428 168.602 94.48 161.55 103.178 161.55 Z " fill-rule="evenodd" fill="rgb(0,0,0)"/><path d=" M 173.412 161.55 C 179.782 161.548 185.526 165.384 187.966 171.269 C 190.405 177.154 189.06 183.929 184.556 188.435 C 180.052 192.941 173.276 194.289 167.39 191.852 C 161.505 189.415 157.667 183.671 157.667 177.3 C 157.667 168.604 164.714 161.553 173.412 161.55 L 173.412 161.55 Z " fill-rule="evenodd" fill="rgb(0,0,0)"/><path d=" M 138.295 161.55 C 146.993 161.55 154.045 168.602 154.045 177.3 C 154.045 185.999 146.993 193.05 138.295 193.05 C 129.596 193.05 122.545 185.999 122.545 177.3 C 122.543 173.122 124.202 169.116 127.155 166.162 C 130.11 163.207 134.117 161.549 138.295 161.55 L 138.295 161.55 Z " fill-rule="evenodd" fill="rgb(0,0,0)"/><path d=" M 231.694 161.55 C 238.065 161.548 243.81 165.384 246.25 171.269 C 248.689 177.154 247.342 183.929 242.838 188.435 C 238.335 192.941 231.56 194.289 225.674 191.852 C 219.788 189.415 215.95 183.671 215.95 177.3 C 215.95 168.604 222.998 161.553 231.694 161.55 L 231.694 161.55 Z " fill-rule="evenodd" fill="rgb(0,0,0)"/><path d=" M 68.333 161.55 C 74.704 161.548 80.449 165.384 82.888 171.269 C 85.328 177.154 83.982 183.929 79.478 188.435 C 74.974 192.941 68.199 194.289 62.313 191.852 C 56.427 189.415 52.588 183.671 52.588 177.3 C 52.588 168.604 59.637 161.553 68.333 161.55 L 68.333 161.55 Z " fill-rule="evenodd" fill="rgb(0,0,0)"/><path d=" M 103.178 215.95 C 111.876 215.95 118.928 223.001 118.928 231.7 C 118.928 240.398 111.876 247.45 103.178 247.45 C 94.48 247.45 87.428 240.398 87.428 231.7 C 87.428 223.001 94.48 215.95 103.178 215.95 Z " fill-rule="evenodd" fill="rgb(0,0,0)"/><path d=" M 173.412 215.95 C 179.782 215.948 185.526 219.784 187.966 225.669 C 190.405 231.554 189.06 238.329 184.556 242.835 C 180.052 247.34 173.276 248.689 167.39 246.252 C 161.505 243.814 157.667 238.071 157.667 231.7 C 157.667 223.004 164.714 215.953 173.412 215.95 L 173.412 215.95 Z " fill-rule="evenodd" fill="rgb(0,0,0)"/><path d=" M 138.295 215.95 C 146.993 215.95 154.045 223.001 154.045 231.7 C 154.045 240.398 146.993 247.45 138.295 247.45 C 129.596 247.45 122.545 240.398 122.545 231.7 C 122.543 227.522 124.202 223.515 127.155 220.561 C 130.11 217.608 134.117 215.948 138.295 215.95 L 138.295 215.95 Z " fill-rule="evenodd" fill="rgb(0,0,0)"/><path d=" M 231.694 215.95 C 238.065 215.948 243.81 219.784 246.25 225.669 C 248.689 231.554 247.342 238.329 242.838 242.835 C 238.335 247.34 231.56 248.689 225.674 246.252 C 219.788 243.814 215.95 238.071 215.95 231.7 C 215.95 223.004 222.998 215.953 231.694 215.95 L 231.694 215.95 Z " fill-rule="evenodd" fill="rgb(0,0,0)"/><path d=" M 68.333 215.95 C 77.028 215.962 84.069 223.019 84.061 231.714 C 84.053 240.411 76.999 247.454 68.304 247.45 C 59.608 247.446 52.561 240.395 52.561 231.7 C 52.561 227.519 54.224 223.509 57.182 220.555 C 60.14 217.601 64.152 215.944 68.333 215.95 L 68.333 215.95 Z " fill-rule="evenodd" fill="rgb(0,0,0)"/><path d=" M 103.178 52.556 C 111.873 52.556 118.923 59.602 118.928 68.297 C 118.933 76.991 111.891 84.046 103.196 84.056 C 94.501 84.066 87.443 77.028 87.428 68.333 C 87.421 64.151 89.076 60.138 92.032 57.179 C 94.986 54.218 98.996 52.556 103.178 52.556 L 103.178 52.556 Z " fill-rule="evenodd" fill="rgb(0,0,0)"/><path d=" M 173.412 52.556 C 182.107 52.553 189.16 59.597 189.167 68.293 C 189.174 76.988 182.132 84.045 173.437 84.056 C 164.742 84.067 157.682 77.028 157.667 68.333 C 157.66 64.152 159.315 60.14 162.268 57.181 C 165.222 54.221 169.23 52.557 173.412 52.556 L 173.412 52.556 Z " fill-rule="evenodd" fill="rgb(0,0,0)"/><path d=" M 138.295 52.556 C 146.989 52.556 154.04 59.602 154.045 68.297 C 154.05 76.991 147.008 84.046 138.313 84.056 C 129.618 84.066 122.56 77.028 122.545 68.333 C 122.536 64.15 124.191 60.137 127.146 57.177 C 130.101 54.216 134.112 52.554 138.295 52.556 L 138.295 52.556 Z " fill-rule="evenodd" fill="rgb(0,0,0)"/><path d=" M 231.694 52.556 C 240.39 52.553 247.443 59.597 247.45 68.293 C 247.457 76.988 240.416 84.045 231.721 84.056 C 223.024 84.067 215.965 77.028 215.95 68.333 C 215.943 64.152 217.598 60.14 220.551 57.181 C 223.504 54.221 227.513 52.557 231.694 52.556 Z " fill-rule="evenodd" fill="rgb(0,0,0)"/><path d=" M 68.333 52.556 C 77.025 52.568 84.064 59.619 84.061 68.311 C 84.058 77.003 77.014 84.05 68.322 84.056 C 59.63 84.062 52.576 77.025 52.561 68.333 C 52.554 64.147 54.212 60.131 57.172 57.171 C 60.131 54.21 64.147 52.55 68.333 52.556 L 68.333 52.556 Z " fill-rule="evenodd" fill="rgb(0,0,0)"/><path d=" M 67.966 25 L 232.034 25 C 255.734 25.07 274.93 44.266 275 67.966 L 275 232.039 C 274.93 255.739 255.733 274.933 232.034 275 L 67.966 275 C 44.267 274.933 25.07 255.739 25 232.039 L 25 67.966 C 25.07 44.266 44.266 25.07 67.966 25 L 67.966 25 Z  M 206.639 267.183 L 232.034 267.183 C 251.426 267.122 267.131 251.415 267.189 232.022 L 267.189 67.966 C 267.131 48.575 251.425 32.869 232.034 32.811 L 206.644 32.811 L 206.639 267.183 Z  M 198.828 32.822 L 67.966 32.822 C 48.579 32.88 32.875 48.579 32.811 67.966 L 32.811 232.022 C 32.869 251.415 48.574 267.122 67.966 267.183 L 198.828 267.183 L 198.828 32.822 Z " fill-rule="evenodd" fill="rgb(0,0,0)"/></g></g></g></g></g></svg>