<?xml version="1.0" standalone="no"?><!-- Generator: Gravit.io --><svg xmlns="http://www.w3.org/2000/svg" xmlns:xlink="http://www.w3.org/1999/xlink" style="isolation:isolate" viewBox="0 0 300 300" width="300" height="300"><defs><clipPath id="_clipPath_7ufuiCud1N4pwOk96AA6222XmgPCpND9"><rect width="300" height="300"/></clipPath></defs><g clip-path="url(#_clipPath_7ufuiCud1N4pwOk96AA6222XmgPCpND9)"><g><path d=" M 0 0 L 300 0 L 300 300 L 0 300 L 0 0 Z " fill="none"/><path d=" M 274.565 252.429 C 275.142 253.422 275.145 254.647 274.573 255.643 C 274.001 256.639 272.941 257.254 271.792 257.255 L 202.733 257.255 C 199.862 253.595 184.145 235.186 156.873 232.441 C 155.733 225.318 155.402 218.742 157.698 215.54 C 158.506 214.409 159.178 214.23 159.744 214.149 C 193.107 209.484 217.006 194.825 225.304 173.941 C 225.78 172.757 226.174 171.563 226.533 170.361 L 274.565 252.429 Z  M 142.716 232.495 C 115.704 235.384 100.14 253.613 97.269 257.255 L 28.174 257.255 C 27.036 257.258 25.985 256.65 25.419 255.663 C 24.854 254.677 24.861 253.463 25.437 252.483 L 147.283 44.308 C 147.854 43.34 148.894 42.745 150.019 42.745 C 151.143 42.745 152.184 43.34 152.755 44.308 L 197.44 120.652 C 190.982 118.975 184.3 118.33 177.641 118.742 C 164.597 119.423 148.924 123.981 144.179 131.391 C 142.103 134.617 143.016 138.913 146.224 141.017 C 149.481 143.107 157.097 144.336 159.995 139.815 C 161.026 138.613 161.026 135.688 167.109 134.208 C 172.143 132.982 177.314 132.406 182.494 132.494 C 190.658 132.638 201.818 134.62 208.645 143.152 C 214.593 150.598 215.983 159.955 212.449 168.827 C 206.133 184.724 185.715 196.548 157.824 200.441 C 153.218 201.087 149.095 203.635 146.457 207.466 C 141.936 213.772 141.667 223.506 142.716 232.495 Z  M 203.226 159.497 L 96.784 159.497 C 103.217 174.506 120.612 187.523 150.001 187.523 C 179.399 187.523 195.61 175.493 203.226 159.497 Z " fill-rule="evenodd" fill="rgb(255,68,68)"/></g></g></svg>