<?xml version="1.0" standalone="no"?><!-- Generator: Gravit.io --><svg xmlns="http://www.w3.org/2000/svg" xmlns:xlink="http://www.w3.org/1999/xlink" style="isolation:isolate" viewBox="0 0 300 300" width="300" height="300"><defs><clipPath id="_clipPath_X7LGTTQIhgWORzJnPOBVM8dfNREGDD3Y"><rect width="300" height="300"/></clipPath></defs><g clip-path="url(#_clipPath_X7LGTTQIhgWORzJnPOBVM8dfNREGDD3Y)"><clipPath id="_clipPath_Qs7lzPDvhCAkId8Aoyxn9MExXZATdSp1"><rect x="0" y="0" width="300" height="300" transform="matrix(1,0,0,1,0,0)" fill="rgb(255,255,255)"/></clipPath><g clip-path="url(#_clipPath_Qs7lzPDvhCAkId8Aoyxn9MExXZATdSp1)"><g><g><path d=" M 0 0 L 300 0 L 300 300 L 0 300 L 0 0 L 0 0 Z " fill="none"/><clipPath id="_clipPath_kOXCHrcRNsUUNchd9polpbfVNyS6fXSk"><path d=" M 25 117.949 L 275 117.949 L 275 182.051 L 25 182.051 L 25 117.949 Z " fill="rgb(255,255,255)"/></clipPath><g clip-path="url(#_clipPath_kOXCHrcRNsUUNchd9polpbfVNyS6fXSk)"><g><g><path d=" M 50.886 167.629 C 44.747 166.937 39.873 161.969 39.24 155.869 C 38.86 152.222 40 148.763 42.215 146.185 C 42.468 145.87 42.405 145.43 42.088 145.178 L 32.848 136.815 C 32.532 136.563 32.088 136.563 31.835 136.878 C 27.278 142.097 24.683 149.015 25.253 156.561 C 26.266 170.207 37.595 181.086 51.392 181.652 C 66.708 182.281 79.303 170.27 79.747 155.366 C 79.747 154.925 79.43 154.611 78.987 154.611 L 66.392 154.611 C 66.013 154.611 65.633 154.925 65.633 155.303 C 65.253 162.661 58.671 168.509 50.886 167.629 Z " fill="rgb(251,67,0)"/><path d=" M 66.898 132.476 L 60 142.978 C 59.81 143.292 59.873 143.733 60.127 143.984 C 62.152 145.493 63.797 147.569 64.683 149.958 C 64.81 150.335 65.19 150.461 65.57 150.398 L 77.532 146.562 C 77.975 146.437 78.165 145.996 77.975 145.619 C 76.076 140.211 72.405 135.557 67.785 132.35 C 67.595 132.099 67.152 132.162 66.898 132.476 Z " fill="rgb(251,67,0)"/><path d=" M 49.113 122.163 L 51.392 133.105 C 51.455 133.482 51.772 133.671 52.152 133.671 C 54.43 133.671 56.708 133.922 58.797 134.614 C 59.177 134.739 59.557 134.551 59.683 134.236 L 64.937 124.3 C 65.126 123.923 65 123.484 64.62 123.295 C 60 121.094 54.81 120.339 49.747 121.156 C 49.303 121.408 49.05 121.723 49.113 122.163 Z " fill="rgb(251,67,0)"/><path d=" M 31.076 124.552 L 37.658 131.218 C 37.911 131.469 38.291 131.532 38.608 131.344 C 40.19 130.337 41.962 129.52 43.671 129.016 C 44.05 128.891 44.24 128.577 44.177 128.263 L 43.355 118.955 C 43.291 118.515 42.911 118.201 42.532 118.264 C 38.291 118.829 34.24 120.716 31.14 123.483 C 30.76 123.734 30.76 124.237 31.076 124.552 Z " fill="rgb(251,67,0)"/><path d=" M 179.303 134.11 L 175.506 134.11 L 175.506 148.637 L 179.303 148.637 L 179.303 134.11 Z " fill="rgb(0,0,0)"/><path d=" M 177.405 132.098 C 178.664 132.098 179.683 131.084 179.683 129.834 C 179.683 128.584 178.664 127.571 177.405 127.571 C 176.146 127.571 175.127 128.584 175.127 129.834 C 175.127 131.084 176.146 132.098 177.405 132.098 Z " fill="rgb(0,0,0)"/><path d=" M 152.342 149.015 C 153.671 149.015 154.81 148.449 155.823 147.568 L 155.823 148.637 L 159.62 148.637 L 159.62 138.89 L 159.62 134.11 L 155.823 134.11 L 155.823 142.034 C 155.823 143.732 154.873 145.241 152.975 145.241 C 151.076 145.241 150.127 144.36 150.127 142.663 L 150.127 134.11 L 146.329 134.11 L 146.329 142.663 C 146.266 146.436 148.355 149.015 152.342 149.015 Z " fill="rgb(0,0,0)"/><path d=" M 115.696 148.071 C 116.962 148.7 118.481 149.014 120.127 149.014 C 122.785 149.014 124.81 148.197 126.203 146.624 L 123.924 144.172 C 123.418 144.674 122.848 145.052 122.278 145.241 C 121.708 145.492 121.013 145.555 120.253 145.555 C 119.114 145.555 118.228 145.303 117.468 144.737 C 116.708 144.234 116.266 143.48 116.013 142.6 L 127.278 142.6 C 127.342 141.908 127.342 141.531 127.342 141.468 C 127.342 139.958 127.025 138.575 126.329 137.443 C 125.633 136.311 124.747 135.368 123.545 134.801 C 122.342 134.172 121.076 133.859 119.62 133.859 C 118.165 133.859 116.772 134.172 115.57 134.801 C 114.367 135.43 113.418 136.374 112.722 137.506 C 112.025 138.638 111.708 139.958 111.708 141.405 C 111.708 142.851 112.025 144.172 112.785 145.303 C 113.418 146.499 114.43 147.442 115.696 148.071 Z  M 117.152 137.883 C 117.785 137.317 118.608 137.066 119.62 137.066 C 120.57 137.066 121.392 137.317 122.025 137.883 C 122.658 138.45 123.102 139.203 123.228 140.084 L 115.95 140.084 C 116.076 139.266 116.455 138.45 117.152 137.883 Z " fill="rgb(0,0,0)"/><path d=" M 198.608 147.379 L 196.076 153.605 L 200.127 153.605 L 208.039 134.11 L 203.987 134.11 L 200.633 142.349 L 197.279 134.11 L 193.165 134.11 L 198.608 147.379 Z " fill="rgb(0,0,0)"/><path d=" M 235.127 160.711 C 233.798 160.711 232.659 161.277 231.646 162.157 L 231.646 161.088 L 227.848 161.088 L 227.848 175.614 L 231.646 175.614 L 231.646 167.691 C 231.646 165.993 232.595 164.484 234.493 164.484 C 236.392 164.484 237.341 165.364 237.341 167.062 L 237.341 175.614 L 241.14 175.614 L 241.14 167.062 C 241.14 163.29 239.113 160.711 235.127 160.711 Z " fill="rgb(0,0,0)"/><path d=" M 223.86 161.088 L 220.063 161.088 L 220.063 175.614 L 223.86 175.614 L 223.86 161.088 Z " fill="rgb(0,0,0)"/><path d=" M 221.961 159.14 C 223.221 159.14 224.24 158.125 224.24 156.875 C 224.24 155.625 223.221 154.611 221.961 154.611 C 220.703 154.611 219.684 155.625 219.684 156.875 C 219.684 158.125 220.703 159.14 221.961 159.14 Z " fill="rgb(0,0,0)"/><path d=" M 210.253 160.711 C 208.924 160.711 207.785 161.277 206.772 162.157 L 206.772 155.68 L 202.975 155.68 L 202.975 170.835 L 202.975 175.615 L 206.772 175.615 L 206.772 167.691 C 206.772 165.993 207.721 164.484 209.62 164.484 C 211.519 164.484 212.468 165.364 212.468 167.063 L 212.468 175.615 L 216.266 175.615 L 216.266 167.063 C 216.328 163.29 214.24 160.711 210.253 160.711 Z " fill="rgb(0,0,0)"/><path d=" M 185 159.453 L 190.76 159.453 L 190.76 175.614 L 194.558 175.614 L 194.558 159.453 L 200.253 159.453 L 200.253 155.679 L 185 155.679 L 185 159.453 Z " fill="rgb(0,0,0)"/><path d=" M 268.419 166.497 C 266.961 166.308 265.949 165.679 265.949 164.799 C 265.949 163.982 266.835 163.353 268.165 163.353 C 269.304 163.353 270.38 164.297 270.38 165.113 L 274.178 165.113 C 274.178 162.347 271.519 160.208 268.165 160.208 C 264.809 160.208 262.152 162.347 262.152 165.113 C 262.152 167.755 264.304 169.265 267.912 169.767 C 269.873 170.018 270.822 170.773 270.822 171.842 C 270.822 172.849 269.683 173.289 268.355 173.289 C 267.215 173.289 265.887 172.345 265.887 171.339 L 262.088 171.339 C 262.088 174.169 264.809 176.433 268.355 176.433 C 271.835 176.433 274.62 174.169 274.62 171.339 C 274.62 168.761 272.152 167 268.419 166.497 Z " fill="rgb(0,0,0)"/><path d=" M 255.253 162.409 C 254.24 161.34 252.785 160.711 250.949 160.711 C 246.835 160.711 244.113 163.918 244.113 167.817 C 244.113 171.716 246.835 174.922 250.949 174.922 C 252.785 174.922 254.24 174.294 255.253 173.225 L 255.253 174.672 C 255.253 177.061 253.419 178.13 251.646 178.13 C 248.798 178.13 248.039 176.055 248.039 176.055 L 244.431 177.438 C 245.253 180.016 248.101 181.903 251.581 181.903 C 255.887 181.903 258.987 178.885 258.987 174.672 L 258.987 161.088 L 255.189 161.088 L 255.189 162.409 L 255.253 162.409 Z  M 251.581 171.842 C 249.556 171.842 247.912 170.143 247.912 167.88 C 247.912 165.616 249.556 163.918 251.581 163.918 C 253.608 163.918 255.253 165.741 255.253 167.88 C 255.253 170.018 253.608 171.842 251.581 171.842 Z " fill="rgb(0,0,0)"/><path d=" M 101.962 148.952 C 97.658 148.952 94.304 146.247 94.304 142.789 L 98.102 142.789 C 98.102 143.921 99.683 145.178 101.962 145.178 C 104.24 145.178 105.823 143.921 105.823 142.789 C 105.823 141.719 103.924 140.713 101.392 140.398 C 96.898 139.832 94.24 137.632 94.24 134.487 C 94.24 131.154 97.468 128.514 101.645 128.514 C 105.823 128.514 109.05 131.154 109.05 134.487 L 105.253 134.487 C 105.253 133.482 103.797 132.287 101.645 132.287 C 99.493 132.287 98.038 133.419 98.038 134.487 C 98.038 135.745 100 136.437 101.898 136.688 C 106.582 137.317 109.62 139.707 109.62 142.851 C 109.62 146.247 106.266 148.952 101.962 148.952 Z " fill="rgb(0,0,0)"/><path d=" M 136.708 149.015 C 139.683 149.015 142.278 147.191 143.418 144.549 L 139.873 143.166 C 139.24 144.36 138.102 145.241 136.708 145.241 C 134.747 145.241 133.102 143.544 133.102 141.405 C 133.102 139.267 134.683 137.569 136.708 137.569 C 138.038 137.569 139.177 138.324 139.81 139.455 L 143.355 138.072 C 142.152 135.557 139.62 133.796 136.708 133.796 C 132.658 133.796 129.304 137.192 129.304 141.405 C 129.304 145.618 132.595 149.015 136.708 149.015 Z " fill="rgb(0,0,0)"/><path d=" M 167.912 141.72 C 167.912 139.581 169.494 137.884 171.519 137.884 C 172.278 137.884 172.595 137.884 172.595 137.884 L 172.595 134.11 L 171.519 134.11 C 170.19 134.11 168.987 134.739 167.912 135.683 L 167.912 134.11 L 164.114 134.11 L 164.114 148.637 L 167.912 148.637 L 167.912 141.72 Z " fill="rgb(0,0,0)"/><path d=" M 184.43 137.254 L 184.43 142.663 C 184.43 146.876 187.532 149.014 190.887 149.014 C 191.581 149.014 192.215 148.952 192.785 148.763 L 191.392 145.241 C 191.392 145.241 191.076 145.303 190.887 145.303 C 189.431 145.303 188.165 144.612 188.165 142.663 L 188.165 137.254 L 191.392 137.254 L 191.392 134.11 L 188.228 134.11 L 188.228 131.092 L 184.43 131.092 L 184.43 134.11 L 182.468 134.11 L 182.468 137.254 L 184.43 137.254 Z " fill="rgb(0,0,0)"/><path d=" M 171.329 174.357 L 168.797 180.582 L 172.848 180.582 L 180.76 161.088 L 176.708 161.088 L 173.355 169.327 L 170 161.088 L 165.886 161.088 L 171.329 174.357 Z " fill="rgb(0,0,0)"/><path d=" M 121.772 173.917 L 121.772 175.614 L 125.696 175.614 L 125.696 167.314 C 125.696 165.112 125.253 163.478 124.05 162.346 C 122.785 161.214 121.013 160.711 118.734 160.711 C 117.532 160.711 116.392 160.836 115.253 161.151 C 114.114 161.465 113.165 161.906 112.342 162.472 L 113.924 165.49 C 114.43 165.112 115.127 164.735 115.886 164.484 C 116.645 164.233 117.468 164.107 118.228 164.107 C 119.367 164.107 120.253 164.359 120.76 164.861 C 121.329 165.364 121.582 166.119 121.582 166.999 L 118.165 166.999 C 116.013 166.999 114.367 167.377 113.292 168.194 C 112.215 168.949 111.708 170.08 111.708 171.464 C 111.708 172.282 111.898 173.1 112.342 173.729 C 112.785 174.357 113.481 174.985 114.24 175.3 C 115.063 175.677 116.076 175.866 117.215 175.866 C 119.43 175.992 120.95 175.363 121.772 173.917 Z  M 115.886 171.275 C 115.886 170.08 116.835 169.515 118.545 169.515 L 121.708 169.515 C 121.708 169.515 121.708 170.458 121.519 171.024 C 121.329 171.59 120.886 172.219 120.253 172.533 C 119.683 172.848 118.987 173.037 118.292 173.037 C 117.532 173.037 116.898 172.911 116.519 172.596 C 116.076 172.282 115.886 171.904 115.886 171.275 Z " fill="rgb(0,0,0)"/><path d=" M 157.342 164.233 L 157.342 169.641 C 157.342 173.855 160.443 175.992 163.797 175.992 C 164.493 175.992 165.127 175.929 165.696 175.74 L 164.303 172.219 C 164.303 172.219 163.987 172.282 163.797 172.282 C 162.342 172.282 161.076 171.59 161.076 169.641 L 161.076 164.233 L 164.303 164.233 L 164.303 161.088 L 161.14 161.088 L 161.14 158.07 L 157.342 158.07 L 157.342 161.088 L 155.38 161.088 L 155.38 164.233 L 157.342 164.233 Z " fill="rgb(0,0,0)"/><path d=" M 101.962 175.928 C 97.658 175.928 94.304 173.225 94.304 169.766 L 98.102 169.766 C 98.102 170.897 99.683 172.155 101.962 172.155 C 104.24 172.155 105.823 170.897 105.823 169.766 C 105.823 168.697 103.924 167.691 101.392 167.376 C 96.898 166.81 94.24 164.609 94.24 161.465 C 94.24 158.132 97.468 155.491 101.645 155.491 C 105.823 155.491 109.05 158.132 109.05 161.465 L 105.253 161.465 C 105.253 160.458 103.797 159.264 101.645 159.264 C 99.493 159.264 98.038 160.396 98.038 161.465 C 98.038 162.723 100 163.415 101.898 163.666 C 106.582 164.295 109.62 166.684 109.62 169.828 C 109.62 173.225 106.266 175.928 101.962 175.928 Z " fill="rgb(0,0,0)"/><path d=" M 133.734 175.614 L 133.734 164.233 L 136.835 164.233 L 136.835 161.088 L 133.734 161.088 C 133.734 158.636 135 158.07 136.835 158.259 L 136.835 154.862 C 132.152 154.862 129.937 157.126 129.937 161.088 L 127.912 161.088 L 127.912 164.233 L 129.937 164.233 L 129.937 175.614 L 133.734 175.614 Z " fill="rgb(0,0,0)"/><path d=" M 142.405 174.985 C 143.671 175.614 145.19 175.929 146.835 175.929 C 149.494 175.929 151.519 175.111 152.912 173.54 L 150.633 171.086 C 150.127 171.59 149.557 171.967 148.987 172.156 C 148.418 172.407 147.722 172.47 146.962 172.47 C 145.823 172.47 144.937 172.219 144.177 171.653 C 143.418 171.149 142.975 170.395 142.722 169.515 L 153.987 169.515 C 154.05 168.823 154.05 168.446 154.05 168.383 C 154.05 166.873 153.734 165.49 153.038 164.358 C 152.342 163.226 151.455 162.283 150.253 161.717 C 149.05 161.088 147.785 160.773 146.329 160.773 C 144.874 160.773 143.481 161.088 142.278 161.717 C 141.076 162.346 140.127 163.289 139.43 164.421 C 138.734 165.552 138.418 166.873 138.418 168.32 C 138.418 169.766 138.734 171.086 139.494 172.219 C 140.127 173.414 141.14 174.357 142.405 174.985 Z  M 143.86 164.861 C 144.494 164.295 145.317 164.044 146.329 164.044 C 147.278 164.044 148.102 164.295 148.734 164.861 C 149.367 165.427 149.81 166.181 149.937 167.062 L 142.658 167.062 C 142.785 166.181 143.165 165.427 143.86 164.861 Z " fill="rgb(0,0,0)"/><path d=" M 221.519 135.683 C 220.317 134.425 220.633 132.853 221.581 132.162 C 222.595 131.344 223.924 131.596 224.747 132.476 C 225.064 132.791 225.38 133.168 225.822 133.671 L 229.62 132.162 C 229.493 131.973 228.039 130.212 227.532 129.709 C 226.392 128.577 224.873 127.886 223.228 127.823 L 223.101 127.823 C 221.899 127.823 220.696 128.137 219.747 128.766 C 216.961 130.652 216.266 133.797 217.468 136.5 C 217.025 136.815 216.519 137.255 215.887 137.758 C 213.292 140.21 213.039 144.298 215.444 146.877 C 216.646 148.198 218.419 148.889 220.127 148.889 C 221.772 148.889 223.355 148.323 224.62 147.065 C 224.938 146.751 225.253 146.499 225.507 146.248 C 226.14 147.002 226.899 147.883 227.468 148.575 L 232.279 148.575 C 232.405 148.575 232.468 148.449 232.405 148.323 C 230.949 146.625 222.279 136.5 221.519 135.683 Z  M 222.088 144.549 C 221.013 145.493 219.431 145.556 218.481 144.612 C 217.912 144.047 217.659 143.355 217.785 142.475 C 217.848 141.909 218.165 141.343 218.608 140.839 C 219.051 140.399 219.558 140.022 219.873 139.77 C 220.633 140.714 221.835 142.097 223.101 143.544 C 222.785 143.796 222.468 144.109 222.088 144.549 Z " fill="rgb(0,0,0)"/></g></g></g></g></g></g></g></svg>