 <svg width="28" height="32" viewBox="0 0 28 32" fill="#848484" xmlns="http://www.w3.org/2000/svg">
  <path d="M22.2507 0C21.5613 0 21.2627 0.433333 21.0147 0.88C21.0147 0.88 11.0747 18.512 10.7453 19.0893C10.7653 19.1213 17.304 31.12 17.304 31.12C17.5307 31.5307 17.8853 32 18.5933 32H23.1987C23.48 32 23.6987 31.896 23.816 31.7067C23.9347 31.5053 23.9347 31.2453 23.804 30.992L17.2987 19.104C17.2933 19.096 17.2933 19.0827 17.2987 19.0747L27.5187 1.008C27.6453 0.753333 27.648 0.492 27.5267 0.294667C27.408 0.104 27.192 0 26.9147 0H22.2507ZM2.864 6.32C2.58266 6.32 2.35066 6.41867 2.23333 6.608C2.11333 6.80667 2.12933 7.06 2.26 7.316L5.38 12.716C5.38533 12.7293 5.38533 12.7373 5.38 12.744L0.479996 21.4013C0.347996 21.652 0.355996 21.9093 0.479996 22.1067C0.593329 22.296 0.798662 22.4187 1.08 22.4187H5.69466C6.38533 22.4187 6.716 21.9547 6.95466 21.5293L11.9333 12.7173L8.76266 7.17733C8.53333 6.75733 8.184 6.29867 7.48 6.29867H2.864V6.32Z"/>
</svg>